<svg width="311" height="97" xmlns="http://www.w3.org/2000/svg" xmlns:xlink="http://www.w3.org/1999/xlink" xml:space="preserve" overflow="hidden"><defs><clipPath id="clip0"><rect x="254" y="161" width="311" height="97"/></clipPath></defs><g clip-path="url(#clip0)" transform="translate(-254 -161)"><path d="M86.5295 25.2828 81.6471 25.2828C81.6414 24.3667 81.6357 20.7304 81.6357 20.7304L69.4751 15.7683 22.3067 64.6951 22.3067 19.1712 39.0197 19.1712 38.9684 32.0431 27.2574 44.2663 27.2574 48.8471C36.1516 39.583 45.2166 30.1937 53.9913 21.106 57.8438 17.117 61.6962 13.1336 65.5487 9.13892L86.4726 17.7145 86.5238 17.7429 86.5238 25.2828Z" fill="#021A44" transform="matrix(1.00749 0 0 1 254.5 161)"/><path d="M74.7673 68.6785 74.699 68.8321C74.1129 70.0157 73.4698 71.1652 72.7699 72.2407L72.7016 72.3488 56.461 72.3488 56.387 72.2805 42.9176 58.299C37.7222 63.705 32.5211 69.0996 27.3143 74.4941 24.0366 77.8914 20.7589 81.2886 17.4812 84.6915L17.3275 84.8508 17.1568 84.7086C3.19236 73.2309 0.443858 58.2137 0.0625953 32.7772-0.00569048 28.0086 0 22.8701 0 17.9023L0 17.7429 0.147953 17.6803 43.2591 0 62.3336 7.82442 58.8851 11.4208 43.2591 5.01901 4.44427 20.9353C4.43858 24.3439 4.44996 26.9274 4.50117 30.6774 4.57515 35.6907 4.7231 41.6316 5.29215 47.6578 5.99777 55.1465 7.44884 64.7748 12.4451 72.7642 13.6629 74.7161 13.5775 74.7445 15.2164 76.4517 19.1143 72.3943 23.018 68.3427 26.9274 64.2911 31.5253 59.5168 36.1289 54.7368 40.7211 49.9568L49.0178 41.3243 50.725 43.3274C56.0114 48.7504 61.2638 54.3384 66.3454 59.7501 69.1109 62.6864 71.8708 65.6284 74.6535 68.559L74.7673 68.6785Z" fill="#021A44" transform="matrix(1.00749 0 0 1 254.5 161)"/><path d="M75.4501 79.5018 75.3193 79.6895C68.7695 87.3034 58.6006 92.7947 43.316 96.9829L43.2534 97 43.1908 96.9829C34.5754 94.6214 27.6216 91.7363 21.9823 88.1798L25.1349 84.9134C29.9832 87.8554 35.9297 90.308 43.2534 92.385 54.9246 89.0845 63.1075 84.9362 69.0142 79.3424L69.0825 79.2741 75.2225 79.2741 75.4501 79.5018Z" fill="#021A44" transform="matrix(1.00749 0 0 1 254.5 161)"/><path d="M81.6414 31.3318 86.5295 31.3318 86.5295 72.3488 81.6414 72.3488Z" fill="#021A44" transform="matrix(1.00749 0 0 1 254.5 161)"/><path d="M124.286 67.9273 123.415 67.9273 107.909 31.3318 99.0827 31.3318 99.0827 72.3488 103.977 72.3488 103.977 35.7533 104.785 35.7533 120.485 72.235 120.53 72.3488 129.237 72.3488 129.237 31.3318 124.286 31.3318 124.286 67.9273Z" fill="#021A44" transform="matrix(1.00749 0 0 1 254.5 161)"/><path d="M159.601 31.4684 159.561 31.3318 149.358 31.3318 138.159 72.1155 138.097 72.3488 142.996 72.3488 145.876 61.8897 162.987 61.8897 165.861 72.3488 170.766 72.3488 159.601 31.4684ZM146.98 57.4739 153.046 35.5769 155.817 35.5769 161.883 57.4739 146.98 57.4739Z" fill="#021A44" transform="matrix(1.00749 0 0 1 254.5 161)"/><path d="M179.683 31.3318 184.571 31.3318 184.571 72.3488 179.683 72.3488Z" fill="#021A44" transform="matrix(1.00749 0 0 1 254.5 161)"/><path d="M192.896 35.8102 205.353 35.8102 205.353 72.3488 210.298 72.3488 210.298 35.8102 222.635 35.8102 222.635 31.3318 192.896 31.3318 192.896 35.8102Z" fill="#021A44" transform="matrix(1.00749 0 0 1 254.5 161)"/><path d="M230.965 31.3318 235.854 31.3318 235.854 72.3488 230.965 72.3488Z" fill="#021A44" transform="matrix(1.00749 0 0 1 254.5 161)"/><path d="M262.4 35.1672C265.393 35.1672 270.065 35.7135 272.938 36.2199L273.143 36.2541 273.337 32.0716 273.183 32.0374C270.816 31.5537 266.207 30.74 261.927 30.74 249.346 30.74 246.882 38.5189 246.882 51.9541 246.882 65.3894 249.397 72.9349 261.927 72.9349 265.757 72.9349 270.253 72.2976 273.183 71.6944L273.337 71.666 273.143 67.4266 272.938 67.4607C271.038 67.7794 266.207 68.5134 262.513 68.5134 253.471 68.5134 251.946 63.4034 251.946 51.9541 251.946 40.5049 253.511 35.1615 262.394 35.1615Z" fill="#021A44" transform="matrix(1.00749 0 0 1 254.5 161)"/><path d="M295.86 49.0178C288.9 47.5212 286.078 46.7075 286.078 41.5007 286.078 37.1589 288.9 35.0477 294.705 35.0477 297.413 35.0477 303.684 35.7476 306.256 36.0435L306.438 36.0663 306.888 31.8895 306.717 31.861C303.291 31.292 297.817 30.6831 294.409 30.6831 285.594 30.6831 281.127 34.4217 281.127 41.7909 281.127 49.1601 285.247 51.7379 293.902 53.5418 300.423 54.8107 302.739 56.057 302.739 60.5297 302.739 65.9356 300.054 68.4508 294.289 68.4508 290.818 68.4508 284.12 67.6883 282.151 67.455L281.969 67.4322 281.457 71.5522 281.633 71.5806C285.736 72.2066 291.279 72.878 294.528 72.878 303.388 72.878 307.696 68.724 307.696 60.1826 307.696 52.9784 304.048 50.9185 295.86 49.0178Z" fill="#021A44" transform="matrix(1.00749 0 0 1 254.5 161)"/></g></svg>